<svg class="svg-icon" style="width: 1em; height: 1em;vertical-align: middle;fill: currentColor;overflow: hidden;" viewBox="0 0 1024 1024" version="1.1" xmlns="http://www.w3.org/2000/svg"><path d="M1017.434 397.624h-146.026a6.558 6.558 0 0 0-6.558 6.558v111.534l-340.114 266.3L192.152 514.626v-110.442a6.56 6.56 0 0 0-6.558-6.558H44.098a6.56 6.56 0 0 0-6.558 6.558v573.662a6.56 6.56 0 0 0 6.558 6.558h973.336a6.56 6.56 0 0 0 6.558-6.558V404.184a6.56 6.56 0 0 0-6.558-6.56z m-6.558 573.662H50.656V410.742h128.38v107.026c0 1.986 0.9 3.866 2.45 5.112l339.084 272.62a6.556 6.556 0 0 0 8.15 0.054l346.728-271.478a6.56 6.56 0 0 0 2.516-5.164v-108.17h132.91v560.544z" fill="#4B555F" /><path d="M893.268 426.044v104.096L524.486 818.282 163.734 528.242v-102.198H65.958v529.94h929.614v-529.94z" fill="#DFDFDE" /><path d="M179.036 39.596v481.314L524.624 798.76l353.342-276.654V39.596H179.036z m685.812 476.122l-340.114 266.3L192.152 514.626V52.714h672.696v463.004z" fill="#4B555F" /><path d="M408.924 688.882L54.618 404.238l135.046-106.92-8.138-10.284-141.494 112.024a6.556 6.556 0 0 0-0.038 10.254l354.284 284.63L40.046 972.67l8.112 10.308 360.714-283.828a6.554 6.554 0 0 0 0.052-10.268zM1021.434 398.996l-146.036-112.024-7.984 10.408 139.328 106.88-362.684 284.576a6.56 6.56 0 0 0 0.052 10.36l369.336 283.828 7.992-10.4-362.64-278.682L1021.49 409.36a6.56 6.56 0 0 0-0.056-10.364z" fill="#4B555F" /><path d="M106.588 383.564h57.774v-45.778zM894.642 337.786v45.778h57.772z" fill="#F58E70" /><path d="M381.74 225.432h386.312v13.116H381.74zM288.946 297.392h479.104v13.116H288.946zM288.946 376.986h479.104v13.116H288.946zM288.946 456.58h479.104v13.116H288.946zM288.946 536.174h479.104v13.116H288.946zM590.74 140.194h177.31v13.116H590.74zM89.62 304.83L0 386.438v150.502h13.116v-144.706l85.334-77.706zM0 560.272h13.116v31.194H0zM0 615.936h13.116v31.194H0z" fill="#4B555F" /></svg>