<svg xmlns="http://www.w3.org/2000/svg" viewBox="0 0 32 26.3"><defs><style>.cls-1{fill:#28c6ff;}.cls-2{fill:#28aae1;}.cls-3{fill:#29c7a6;}</style></defs><g id="Layer_2" data-name="Layer 2"><g id="Layer_1-2" data-name="Layer 1"><g id="Layer_1-3" data-name="Layer 1"><path class="cls-1" d="M32,7.6H3a3,3,0,0,1-3-3V0H23.9A8.41,8.41,0,0,1,32,7.6Z"/><path class="cls-2" d="M11.5,16.9H.6A8.57,8.57,0,0,1,8.7,9.3H19.2Z"/><path class="cls-1" d="M32,9.3a8.38,8.38,0,0,1-8.4,7.6H14l1-1,6.6-6.6Z"/><path class="cls-3" d="M19.1,26.3H8.7A8.57,8.57,0,0,1,.6,18.7H11.5L15.8,23Z"/><path class="cls-3" d="M19.1,9.3l-7.6,7.6H.6A8.57,8.57,0,0,1,8.7,9.3Z"/></g></g></g></svg>