<svg xmlns="http://www.w3.org/2000/svg" viewBox="0 0 368.2 68.63"><defs><style>.cls-1{fill:#1c437c;}.cls-2{fill:#28c6ff;}.cls-3{fill:#28aae1;}.cls-4{fill:#29c7a6;}.cls-5{fill:#29aaad;}</style></defs><g id="Layer_2" data-name="Layer 2"><g id="Layer_1-2" data-name="Layer 1"><g id="type"><path id="type_CompoundPathItem_" data-name="type &lt;CompoundPathItem&gt;" class="cls-1" d="M126,31.28a10.91,10.91,0,0,1-4.64,4.44,17.24,17.24,0,0,1-8.18,1.71h-7.3V53.78H99.31V13.48h13.91a17.62,17.62,0,0,1,7.86,1.6,11.05,11.05,0,0,1,4.81,4.32,11.82,11.82,0,0,1,1.6,6.08A12.23,12.23,0,0,1,126,31.28Zm-7.19-.81a6.65,6.65,0,0,0,1.85-5,6.72,6.72,0,0,0-1.85-5c-1.24-1.2-3.11-1.8-5.63-1.8h-7.3V32.27h7.3C115.74,32.27,117.61,31.67,118.85,30.47Z"/><path id="type_CompoundPathItem_2" data-name="type &lt;CompoundPathItem&gt;" class="cls-1" d="M140.41,10.87V53.78H133.8V10.87Z"/><path id="type_CompoundPathItem_3" data-name="type &lt;CompoundPathItem&gt;" class="cls-1" d="M148.91,29.14A14.58,14.58,0,0,1,162,21.31a13.89,13.89,0,0,1,6.58,1.48,13.2,13.2,0,0,1,4.49,3.68V21.83h6.67v32h-6.67V49a13,13,0,0,1-4.58,3.77,14.79,14.79,0,0,1-14.14-.61,15,15,0,0,1-5.42-5.91,18.11,18.11,0,0,1-2-8.61A17.58,17.58,0,0,1,148.91,29.14ZM171.69,32a9.58,9.58,0,0,0-3.56-3.71,9.36,9.36,0,0,0-4.76-1.28,9.4,9.4,0,0,0-8.32,4.9,11.38,11.38,0,0,0-1.36,5.71,11.89,11.89,0,0,0,1.36,5.8,9.55,9.55,0,0,0,3.6,3.79,9.19,9.19,0,0,0,4.72,1.31,9.36,9.36,0,0,0,4.76-1.28,9.53,9.53,0,0,0,3.56-3.74,11.68,11.68,0,0,0,1.36-5.76A11.52,11.52,0,0,0,171.69,32Z"/><path id="type_CompoundPathItem_4" data-name="type &lt;CompoundPathItem&gt;" class="cls-1" d="M196.13,27.22V44.91a3.39,3.39,0,0,0,.84,2.58,4.19,4.19,0,0,0,2.87.78h4.06v5.51h-5.22q-4.47,0-6.84-2.09t-2.38-6.78V27.22h-3.77V21.83h3.77V13.89h6.67v7.94h7.77v5.39Z"/><path id="type_CompoundPathItem_5" data-name="type &lt;CompoundPathItem&gt;" class="cls-1" d="M223.38,27.22h-5.92V53.78H210.8V27.22H207V21.83h3.77V19.57q0-5.5,2.92-8T222.91,9v5.51c-2,0-3.42.37-4.23,1.13s-1.22,2.06-1.22,3.91v2.26h5.92Z"/><path id="type_CompoundPathItem_6" data-name="type &lt;CompoundPathItem&gt;" class="cls-1" d="M229,29.14a14.58,14.58,0,0,1,13.07-7.83,13.86,13.86,0,0,1,6.58,1.48,13.33,13.33,0,0,1,4.5,3.68V21.83h6.66v32h-6.66V49a13.15,13.15,0,0,1-4.58,3.77,14.81,14.81,0,0,1-14.15-.61A15,15,0,0,1,229,46.27a18.22,18.22,0,0,1-2-8.61A17.69,17.69,0,0,1,229,29.14ZM251.81,32A9.46,9.46,0,0,0,235.17,32a11.49,11.49,0,0,0-1.36,5.71,12,12,0,0,0,1.36,5.8,9.55,9.55,0,0,0,3.6,3.79,9.21,9.21,0,0,0,4.72,1.31,9.34,9.34,0,0,0,8.32-5,11.68,11.68,0,0,0,1.37-5.76A11.53,11.53,0,0,0,251.81,32Z"/><path id="type_CompoundPathItem_7" data-name="type &lt;CompoundPathItem&gt;" class="cls-1" d="M311.44,21.83l-9.91,32h-7l-6.43-23.6-6.44,23.6h-7l-10-31.95h6.73l6.66,25.69L285,21.83h6.9l6.49,25.57L305,21.83Z"/><path id="type_CompoundPathItem_8" data-name="type &lt;CompoundPathItem&gt;" class="cls-1" d="M361.79,22.88a11.27,11.27,0,0,1,4.7,4.63,15.08,15.08,0,0,1,1.71,7.43V53.78h-6.55V35.92q0-4.29-2.15-6.58a7.6,7.6,0,0,0-5.85-2.29,7.74,7.74,0,0,0-5.89,2.29,9.24,9.24,0,0,0-2.17,6.58V53.78H339V35.92q0-4.29-2.15-6.58A7.62,7.62,0,0,0,331,27.05a7.72,7.72,0,0,0-5.89,2.29A9.24,9.24,0,0,0,323,35.92V53.78h-6.61V21.83H323v3.65a11,11,0,0,1,4.12-3.07,13.11,13.11,0,0,1,5.33-1.1,14.22,14.22,0,0,1,6.84,1.62,11.13,11.13,0,0,1,4.64,4.7A10.74,10.74,0,0,1,348.43,23,13.38,13.38,0,0,1,355,21.31,14.24,14.24,0,0,1,361.79,22.88Z"/></g><g id="logoMark"><path id="logoMark_PathItem_" data-name="logoMark &lt;PathItem&gt;" class="cls-2" d="M83.58,19.85H7.9A7.9,7.9,0,0,1,0,12V0H62.51A22.13,22.13,0,0,1,83.58,19.85Z"/><path id="logoMark_PathItem_2" data-name="logoMark &lt;PathItem&gt;" class="cls-3" d="M30.11,44.24H1.62A22.15,22.15,0,0,1,22.69,24.41l.95,0H50Z"/><path id="logoMark_PathItem_3" data-name="logoMark &lt;PathItem&gt;" class="cls-2" d="M83.58,24.39a22.14,22.14,0,0,1-22,19.86H36.51L39,41.72,56.36,24.39Z"/><path id="logoMark_PathItem_4" data-name="logoMark &lt;PathItem&gt;" class="cls-4" d="M50,68.63H22.68A22.13,22.13,0,0,1,1.62,48.8v0h28.5L41.26,59.93Z"/><path id="logoMark_PathItem_5" data-name="logoMark &lt;PathItem&gt;" class="cls-4" d="M50,24.39,30.11,44.24H1.62v0A22.14,22.14,0,0,1,22.68,24.39Z"/><path id="logoMark_PathItem_6" data-name="logoMark &lt;PathItem&gt;" class="cls-5" d="M39.43,41.32a2.16,2.16,0,0,1-.4.4Z"/></g></g></g></svg>